<?xml version="1.0" encoding="UTF-8" standalone="no" ?>
<!DOCTYPE svg PUBLIC "-//W3C//DTD SVG 1.1//EN" "http://www.w3.org/Graphics/SVG/1.1/DTD/svg11.dtd">
<svg xmlns="http://www.w3.org/2000/svg" xmlns:xlink="http://www.w3.org/1999/xlink" version="1.1" width="616.955078125" height="360.46392" xml:space="preserve">
<desc>Created with Fabric.js 1.6.0-rc.1</desc>
<defs></defs>
  <g transform="translate(95.92 64.32)">
   <text font-family="ADAMCG PRO" font-size="40" font-weight="normal" style="stroke: none; stroke-width: 1; stroke-dasharray: none; stroke-linecap: butt; stroke-linejoin: miter; stroke-miterlimit: 10; fill: #000000; fill-rule: nonzero; opacity: 1;" ><tspan x="0" y="8.98" fill="#000000"></tspan></text>
 </g>
<g style="stroke: none; stroke-width: 1; stroke-dasharray: none; stroke-linecap: butt; stroke-linejoin: miter; stroke-miterlimit: 10; fill: none; fill-rule: nonzero; opacity: 1;" transform="translate(177.14999999999998 10) scale(1.28 1.28)" >
  <path d="M 10.497 118.662 c -0.906 6.578 5.95 13.178 16.133 16.373 c 0.911 13.918 19.433 27.168 43.66 30.5 c 17.384 2.393 33.318 -0.926 42.646 -7.852 a 61.046 61.046 0 0 0 10.945 2.531 c 18.328 2.521 34.539 -3.316 38.133 -13.244 a 32.667 32.667 0 0 0 6.652 1.623 c 10.723 1.475 20.104 -2.34 20.953 -8.523 c 0.781 -5.676 -5.904 -11.373 -15.307 -13.408 c -12.652 -3.768 -39.201 -8.811 -70.105 -13.063 c -31.062 -4.273 -58.111 -6.588 -71.234 -6.348 c -11.847 -0.36 -21.502 4.319 -22.476 11.411 z" style="stroke: none; stroke-width: 1; stroke-dasharray: none; stroke-linecap: butt; stroke-linejoin: miter; stroke-miterlimit: 10; fill: #FFCB4F; fill-rule: nonzero; opacity: 1;" transform="" stroke-linecap="round" />
  <path d="M 174.318 83.167 c -4.26 -4.476 -10.471 -6.071 -14.865 -6.071 c -0.914 0 -1.785 0.067 -2.586 0.201 c -0.561 0.094 -1.092 0.241 -1.195 0.685 c -0.129 0.545 0.455 0.969 1.617 1.813 c 2.916 2.118 8.98 6.524 8.512 16.386 c -0.316 6.623 -7.348 11.55 -20.898 14.648 c -2.658 0.607 -5.578 1.141 -8.736 1.607 c 14.578 -3.135 24.277 -8.764 24.572 -15.319 c 0.158 -3.568 -1.277 -6.965 -4.271 -10.094 c -5.67 -5.93 -15.342 -9.165 -18.721 -9.165 c -0.135 0 -0.264 0.007 -0.377 0.015 c -1.689 0.147 -2.475 0.47 -2.629 1.077 c -0.244 0.962 1.236 1.939 3.922 3.716 c 4.305 2.845 10.809 7.145 10.785 12.719 c -0.039 9.002 -19.381 16.42 -43.971 17.243 c 14.654 -1.633 27.088 -6.65 27.188 -14.814 c 0.035 -2.986 -1.059 -5.693 -3.168 -7.828 c -2.363 -2.392 -5.883 -3.877 -9.186 -3.877 a 9.41 9.41 0 0 0 -2.219 0.252 c -0.324 0.08 -0.516 0.239 -0.566 0.476 c -0.094 0.435 0.313 0.753 1.121 1.388 c 1.777 1.394 5.086 3.986 4.686 8.85 c -0.563 6.828 -16.611 12.597 -35.046 12.597 c -9.843 0 -19.06 -1.672 -25.286 -4.588 a 0.385 0.385 0 0 0 -0.493 0.143 a 0.39 0.39 0 0 0 0.076 0.508 c 3.628 3.076 10.59 5.412 19.103 6.604 c 5.316 1.164 11.139 1.965 17.268 2.387 c -0.469 0.002 -0.927 0.006 -1.399 0.006 c -19.394 0 -37.564 -3.297 -49.853 -9.049 a 0.39 0.39 0 0 0 -0.417 0.651 c 10.468 8.877 35.177 14.613 62.951 14.613 c 21.215 0 36.838 -1.619 47.758 -4.949 c 13.424 -4.092 20.182 -10.758 20.664 -20.379 c 0.245 -4.976 -1.214 -9.164 -4.341 -12.452 z" style="stroke: none; stroke-width: 1; stroke-dasharray: none; stroke-linecap: butt; stroke-linejoin: miter; stroke-miterlimit: 10; fill: #0493C8; fill-rule: nonzero; opacity: 1;" transform="" stroke-linecap="round" />
  <circle cx="54.870000000000005" cy="43.010000000000005" r="23" style="stroke: none; stroke-width: 1; stroke-dasharray: none; stroke-linecap: butt; stroke-linejoin: miter; stroke-miterlimit: 10; fill: #FFCB4F; fill-rule: evenodd; opacity: 1;" transform=" "/>
  <path d="M 24.601 124.047 c 7.307 3.289 14.292 8.02 21.599 11.307 l 38.964 -1.072 c 6.771 5.055 13.541 10.109 20.309 15.164 c 8.027 5.992 7.107 4.352 14.801 -2.021 l 10 -8.287 c 7.299 -6.047 7.857 -4.848 -0.201 -10.008 c -6.984 -4.48 -13.973 -8.957 -20.957 -13.438 c -12.155 0.24 -24.309 0.479 -36.463 0.715 c -6.485 -3.99 -12.971 -7.98 -19.455 -11.973 c -8.721 -5.366 -7.077 -6.334 -14.912 0.287 c -5.125 4.334 -11.813 8.828 -16.211 12.619 c -5.827 5.023 -3.871 3.828 2.526 6.707 z" style="stroke: none; stroke-width: 1; stroke-dasharray: none; stroke-linecap: butt; stroke-linejoin: miter; stroke-miterlimit: 10; fill: #FFF; fill-rule: evenodd; opacity: 1;" transform="" stroke-linecap="round" />
  <path d="M 30.833 109.061 l 26.385 15.324 c 2.103 0.482 38.174 -2.309 39.568 -1.184 l 26.1 20.605 l -2.277 1.887 l -0.141 0.119 l -25.137 -19.838 l -38.357 1.514 v -0.002 c -0.855 0.045 -20.321 -11.465 -28.803 -16.432 c 0.871 -0.656 1.765 -1.322 2.662 -1.993 z m 84.671 41.039 c 0.676 -0.535 1.441 -1.223 2.375 -2.053 L 91.205 126.77 v 0.002 c -1.393 -1.111 -37.436 2.666 -39.538 2.203 l -27.369 -14.93 a 69.087 69.087 0 0 0 -1.888 1.564 l -0.662 0.576 c 8.364 4.627 28.807 15.951 29.674 15.895 v 0.004 l 38.33 -2.527 l 25.752 20.543 z m 9.898 -8.221 l 3.211 -2.799 l -26.244 -19.447 c -1.395 -1.141 -37.498 0.666 -39.6 0.156 l -25.462 -15.713 c -0.816 0.666 -1.661 1.328 -2.521 1.992 c 8.643 5.352 26.905 16.855 27.74 16.822 v 0.004 c 12.795 -0.168 25.593 -0.336 38.388 -0.506 l 24.488 19.491 z m 6.133 -5.133 l 0.012 -0.01 c 0.912 -0.756 2.525 -2.205 3.223 -2.76 l -26.82 -17.912 c -1.395 -1.154 -37.526 -0.336 -39.629 -0.867 L 43.607 99.02 c -0.694 0.421 -1.501 1.048 -2.527 1.898 c 8.626 5.643 26.171 17.402 26.997 17.375 v 0.006 l 38.418 0.506 l 25.04 17.941 z" style="stroke: none; stroke-width: 1; stroke-dasharray: none; stroke-linecap: butt; stroke-linejoin: miter; stroke-miterlimit: 10; fill: #DC5426; fill-rule: evenodd; opacity: 1;" transform="" stroke-linecap="round" />
</g>
  <g transform="translate(309.65 278.2) scale(2.35 2.81)">
   <text font-family="Comic Neue" font-size="40" font-weight="normal" style="stroke: none; stroke-width: 1; stroke-dasharray: none; stroke-linecap: butt; stroke-linejoin: miter; stroke-miterlimit: 10; fill: #006699; fill-rule: nonzero; opacity: 1;" ><tspan x="-127.01" y="8.98" style="stroke: none; stroke-width: 0; stroke-dasharray: none; stroke-linecap: butt; stroke-linejoin: miter; stroke-miterlimit: 4; fill: #006699; fill-rule: ; opacity: 1;">C</tspan><tspan x="-101.74" y="8.98" style="stroke: none; stroke-width: 0; stroke-dasharray: none; stroke-linecap: butt; stroke-linejoin: miter; stroke-miterlimit: 4; fill: #006699; fill-rule: ; opacity: 1;">a</tspan><tspan x="-81.54" y="8.98" style="stroke: none; stroke-width: 0; stroke-dasharray: none; stroke-linecap: butt; stroke-linejoin: miter; stroke-miterlimit: 4; fill: #006699; fill-rule: ; opacity: 1;">r</tspan><tspan x="-64.92" y="8.98" style="stroke: none; stroke-width: 0; stroke-dasharray: none; stroke-linecap: butt; stroke-linejoin: miter; stroke-miterlimit: 4; fill: #006699; fill-rule: ; opacity: 1;">e</tspan><tspan x="-44.08" y="8.98" style="stroke: none; stroke-width: 0; stroke-dasharray: none; stroke-linecap: butt; stroke-linejoin: miter; stroke-miterlimit: 4; fill: #006699; fill-rule: ; opacity: 1;">f</tspan><tspan x="-29.26" y="8.98" style="stroke: none; stroke-width: 0; stroke-dasharray: none; stroke-linecap: butt; stroke-linejoin: miter; stroke-miterlimit: 4; fill: #006699; fill-rule: ; opacity: 1;">r</tspan><tspan x="-12.64" y="8.98" style="stroke: none; stroke-width: 0; stroke-dasharray: none; stroke-linecap: butt; stroke-linejoin: miter; stroke-miterlimit: 4; fill: #006699; fill-rule: ; opacity: 1;">e</tspan><tspan x="8.2" y="8.98" style="stroke: none; stroke-width: 0; stroke-dasharray: none; stroke-linecap: butt; stroke-linejoin: miter; stroke-miterlimit: 4; fill: #006699; fill-rule: ; opacity: 1;">e</tspan><tspan x="29.04" y="8.98" style="stroke: none; stroke-width: 0; stroke-dasharray: none; stroke-linecap: butt; stroke-linejoin: miter; stroke-miterlimit: 4; fill: #006699; fill-rule: ; opacity: 1;">t</tspan><tspan x="44.51" y="8.98" style="stroke: none; stroke-width: 0; stroke-dasharray: none; stroke-linecap: butt; stroke-linejoin: miter; stroke-miterlimit: 4; fill: #006699; fill-rule: ; opacity: 1;">r</tspan><tspan x="61.13" y="8.98" style="stroke: none; stroke-width: 0; stroke-dasharray: none; stroke-linecap: butt; stroke-linejoin: miter; stroke-miterlimit: 4; fill: #006699; fill-rule: ; opacity: 1;">a</tspan><tspan x="81.33" y="8.98" style="stroke: none; stroke-width: 0; stroke-dasharray: none; stroke-linecap: butt; stroke-linejoin: miter; stroke-miterlimit: 4; fill: #006699; fill-rule: ; opacity: 1;">v</tspan><tspan x="98.75" y="8.98" style="stroke: none; stroke-width: 0; stroke-dasharray: none; stroke-linecap: butt; stroke-linejoin: miter; stroke-miterlimit: 4; fill: #006699; fill-rule: ; opacity: 1;">e</tspan><tspan x="119.59" y="8.98" style="stroke: none; stroke-width: 0; stroke-dasharray: none; stroke-linecap: butt; stroke-linejoin: miter; stroke-miterlimit: 4; fill: #006699; fill-rule: ; opacity: 1;">l</tspan></text>
 </g>
</svg>